<svg width="30" height="30" viewBox="0 0 30 30" fill="none" xmlns="http://www.w3.org/2000/svg">
<rect width="30" height="30" rx="15" fill="#222020"/>
<g clip-path="url(#clip0_399_2)">
<path d="M18.9547 6.1115C18.2275 6.02557 17.4981 5.99366 16.7672 6.00102C16.454 6.0043 16.1446 6.04603 15.8404 6.13032C14.8379 6.40773 14.1032 7.04358 13.6862 8.09922C13.4643 8.66224 13.3723 9.25634 13.3664 9.866C13.3597 10.6197 13.3642 11.3734 13.3642 12.127C13.3642 12.1573 13.3642 12.1868 13.3642 12.2252H11V15.2473H13.3604V23.0002H16.2017V15.2449H18.5563C18.6742 14.2359 18.7915 13.2342 18.9095 12.2212H16.1988C16.1973 12.1884 16.1951 12.1655 16.1951 12.1426C16.1951 11.5166 16.1928 10.8905 16.1965 10.2653C16.1973 10.1041 16.2084 9.9421 16.2314 9.78335C16.299 9.3169 16.5357 9.00675 16.9579 8.90119C17.1471 8.85372 17.3452 8.83081 17.5397 8.8259C17.9982 8.81526 18.4568 8.82181 18.9161 8.82181C18.9436 8.82181 18.9711 8.82181 18.9993 8.82181V6.11805C18.9814 6.11477 18.9681 6.11232 18.954 6.11068L18.9547 6.1115Z" fill="white"/>
</g>
<defs>
<clipPath id="clip0_399_2">
<rect width="8" height="17" fill="white" transform="translate(11 6)"/>
</clipPath>
</defs>
</svg>
