<svg width="30" height="30" viewBox="0 0 30 30" fill="none" xmlns="http://www.w3.org/2000/svg">
<rect width="30" height="30" rx="15" fill="#222020"/>
<g clip-path="url(#clip0_399_3)">
<path d="M15.0008 12.3076C13.5079 12.306 12.3064 13.5061 12.3064 15.0002C12.3064 16.4901 13.5054 17.6919 14.9958 17.6936C16.4871 17.6952 17.6902 16.4935 17.6902 15.001C17.6902 13.5094 16.4921 12.3093 15.0008 12.3085V12.3076Z" fill="white"/>
<path d="M21.9917 12.0084C21.9833 10.86 21.5354 9.88804 20.7036 9.09768C20.2132 8.63129 19.6353 8.31481 18.9817 8.13742C18.7119 8.06413 18.438 8.02165 18.159 8.0075C18.1432 8.0075 18.1274 8.0025 18.1116 8H11.8843C11.7943 8.00833 11.7044 8.01582 11.6153 8.02582C11.1474 8.07496 10.7019 8.20321 10.2814 8.41309C9.42048 8.84283 8.78351 9.49411 8.37386 10.3644C8.18734 10.7617 8.07244 11.1798 8.02498 11.6162C8.01582 11.7028 8.00833 11.7894 8 11.876V18.1231C8.00833 18.2081 8.01582 18.2939 8.02498 18.3788C8.0816 18.9085 8.2373 19.4074 8.49376 19.8738C8.93172 20.6675 9.5637 21.2554 10.3863 21.636C10.806 21.8301 11.249 21.9459 11.7102 21.9825C11.8393 21.9925 11.9692 21.9983 12.0991 21.9992C14.045 22 15.9917 22.0008 17.9376 21.9992C19.7102 21.9992 21.2973 20.824 21.8152 19.1325C21.9317 18.7519 21.995 18.3638 21.995 17.9666C21.9958 15.9802 22.005 13.9939 21.9917 12.0084ZM14.9933 18.7694C12.9242 18.7694 11.2298 17.0721 11.229 15.0008C11.229 12.9271 12.9234 11.2306 14.9958 11.2306C17.0716 11.2306 18.7685 12.9271 18.7669 15.0008C18.7652 17.0771 17.0699 18.7694 14.9933 18.7694ZM19.0316 11.7694C18.5878 11.7678 18.2265 11.4038 18.2273 10.9599C18.2273 10.5143 18.5928 10.1521 19.0391 10.1537C19.4829 10.1554 19.8443 10.5185 19.8435 10.9632C19.8435 11.4088 19.4771 11.7719 19.0316 11.7703V11.7694Z" fill="white"/>
</g>
<defs>
<clipPath id="clip0_399_3">
<rect width="14" height="14" fill="white" transform="translate(8 8)"/>
</clipPath>
</defs>
</svg>
