<svg width="31" height="22" viewBox="0 0 31 22" fill="none" xmlns="http://www.w3.org/2000/svg">
<g clip-path="url(#clip0_1018_821)">
<path d="M20.0163 0H10.9837C4.9174 0 0 4.9247 0 11C0 17.0753 4.9174 22 10.9837 22H20.0163C26.0826 22 31 17.0753 31 11C31 4.9247 26.0826 0 20.0163 0ZM13.3699 16.0881H10.9814C10.5713 16.0881 10.177 16.0245 9.79401 15.9315C7.58458 15.3914 5.93487 13.4079 5.93487 11.0318C5.93487 8.65566 7.51206 6.77202 9.64218 6.1797C10.0727 6.05942 10.5146 5.97545 10.9837 5.97545H13.7823V8.47865H10.9837C9.09605 8.47865 7.68428 10.5438 8.87398 12.5341C9.26827 13.1923 9.99342 13.5849 10.7594 13.5849H11.693L12.2459 12.23H14.938L13.3699 16.0881ZM21.2355 15.8838C20.8049 16.0041 20.363 16.0881 19.8939 16.0881H17.0953V13.5849H19.8939C21.7816 13.5849 23.1933 11.5197 22.0037 9.5294C21.6094 8.87126 20.8842 8.47865 20.1183 8.47865H19.1846L18.6317 9.83351H15.9396L17.5077 5.97545H19.8962C20.3064 5.97545 20.7007 6.03899 21.0836 6.13204C23.2931 6.67217 24.9428 8.65566 24.9428 11.0318C24.9428 13.4079 23.3656 15.2915 21.2355 15.8838Z" fill="#222020"/>
</g>
<defs>
<clipPath id="clip0_1018_821">
<rect width="31" height="22" fill="white"/>
</clipPath>
</defs>
</svg>
