<svg width="700" height="150" viewBox="0 0 700 150" fill="none" xmlns="http://www.w3.org/2000/svg">
<path d="M238.088 53.7055V104.657H228.32V53.7055H209.305V44.6379H258.054L255.202 53.7055H238.088Z" fill="#1C1C1C"/>
<path d="M323.727 104.657H279.818V44.6379H323.987L321.134 53.7055H289.499V68.3002H318.282V77.4542H289.499V95.5895H323.727V104.657Z" fill="#1C1C1C"/>
<path d="M364.543 79.095H382.608L374.742 58.9734L373.359 52.2374L371.976 58.9734L364.543 79.095ZM361.604 87.5581L355.294 104.657H345.009L367.395 44.6379H379.064L402.574 104.657H392.461L385.806 87.5581H361.604Z" fill="#1C1C1C"/>
<path d="M424 104.657V44.6379H465.661L462.809 53.7055H433.767V68.3002H461.253V77.4542H433.767V104.657H424Z" fill="#1C1C1C"/>
<path d="M496.257 44.6379V95.5895H525.472L522.792 104.657H486.49V44.6379H496.257Z" fill="#1C1C1C"/>
<path d="M573.594 105.693C568.754 105.693 564.489 104.945 560.802 103.448C557.171 101.894 554.146 99.7347 551.726 96.9712C549.306 94.2078 547.462 90.9261 546.194 87.1264C544.984 83.3266 544.379 79.1526 544.379 74.6043V72.2727C544.379 68.0699 545.099 64.2125 546.54 60.7006C547.98 57.1311 549.997 54.1085 552.59 51.6329C555.183 49.0997 558.266 47.1423 561.839 45.7605C565.411 44.3212 569.33 43.6016 573.594 43.6016C577.858 43.6016 581.776 44.3212 585.349 45.7605C588.922 47.1423 591.976 49.0997 594.511 51.6329C597.104 54.1085 599.121 57.1311 600.562 60.7006C602.002 64.2125 602.723 68.0699 602.723 72.2727V74.6043C602.723 79.1526 602.118 83.3266 600.907 87.1264C599.697 90.9261 597.853 94.2078 595.376 96.9712C592.955 99.7347 589.93 101.894 586.3 103.448C582.67 104.945 578.434 105.693 573.594 105.693ZM573.594 52.6692C567.255 52.6692 562.473 54.454 559.246 58.0235C556.076 61.593 554.492 66.4003 554.492 72.4454V74.4316C554.492 77.5981 554.809 80.5343 555.443 83.2402C556.076 85.9461 557.142 88.3066 558.641 90.3216C560.139 92.2791 562.069 93.8336 564.432 94.985C566.852 96.0789 569.848 96.6258 573.421 96.6258C577.109 96.6258 580.163 96.1077 582.583 95.0714C585.061 93.9775 587.02 92.4518 588.461 90.4943C589.959 88.5369 591.025 86.2052 591.659 83.4993C592.293 80.7358 592.61 77.7133 592.61 74.4316V72.4454C592.61 66.4003 590.996 61.593 587.769 58.0235C584.6 54.454 579.875 52.6692 573.594 52.6692Z" fill="#1C1C1C"/>
<path d="M666.896 51.6329L678.478 88.9399L690.579 43.6016L700 46.1923L684.442 104.657H673.119L661.969 68.9047L660.586 60.2688L659.203 68.9047L648.053 104.657H636.73L621.172 46.1923L630.593 43.6016L642.694 89.0262L654.276 51.6329H666.896Z" fill="#1C1C1C"/>
<path d="M0 74.7368C0 48.7057 0 35.6901 4.92587 25.8319C9.44713 16.7834 16.7834 9.44713 25.8319 4.92587C35.6901 0 48.7057 0 74.7368 0C100.768 0 113.783 0 123.642 4.92587C132.69 9.44713 140.026 16.7834 144.548 25.8319C149.474 35.6901 149.474 48.7057 149.474 74.7368C149.474 100.768 149.474 113.783 144.548 123.642C140.026 132.69 132.69 140.026 123.642 144.548C113.783 149.474 100.768 149.474 74.7368 149.474C48.7057 149.474 35.6901 149.474 25.8319 144.548C16.7834 140.026 9.44713 132.69 4.92587 123.642C0 113.783 0 100.768 0 74.7368Z" fill="#1C1C1C"/>
</svg>
